<svg width="64" height="64" viewBox="0 0 64 64" fill="none" xmlns="http://www.w3.org/2000/svg">
  <!-- Clear sphere with gradient -->
  <defs>
    <radialGradient id="sphereGradient" cx="0.3" cy="0.3">
      <stop offset="0%" style="stop-color:rgba(6, 182, 212, 0.4);stop-opacity:1" />
      <stop offset="50%" style="stop-color:rgba(16, 185, 129, 0.3);stop-opacity:1" />
      <stop offset="100%" style="stop-color:rgba(139, 92, 246, 0.2);stop-opacity:1" />
    </radialGradient>

    <linearGradient id="brainGradient" x1="0%" y1="0%" x2="100%" y2="100%">
      <stop offset="0%" style="stop-color:#06b6d4;stop-opacity:1" />
      <stop offset="100%" style="stop-color:#10b981;stop-opacity:1" />
    </linearGradient>

    <linearGradient id="gateGradient" x1="0%" y1="0%" x2="100%" y2="100%">
      <stop offset="0%" style="stop-color:#06b6d4;stop-opacity:0.9" />
      <stop offset="100%" style="stop-color:#10b981;stop-opacity:0.9" />
    </linearGradient>
  </defs>

  <!-- Background circle -->
  <circle cx="32" cy="32" r="30" fill="#0a0a0a" />

  <!-- Clear sphere background -->
  <circle cx="32" cy="32" r="28" fill="url(#sphereGradient)" opacity="0.5" />
  <circle cx="32" cy="32" r="28" fill="none" stroke="url(#brainGradient)" stroke-width="2" opacity="0.7" />

  <!-- Shine effect -->
  <ellipse cx="24" cy="24" rx="10" ry="15" fill="white" opacity="0.2" />

  <!-- Gate structure (modern, bold) -->
  <g id="gate">
    <rect x="12" y="38" width="6" height="16" rx="1" fill="url(#gateGradient)" />
    <rect x="46" y="38" width="6" height="16" rx="1" fill="url(#gateGradient)" />
    <rect x="12" y="41" width="40" height="4" rx="1" fill="url(#gateGradient)" />
    <rect x="12" y="47" width="40" height="4" rx="1" fill="url(#gateGradient)" opacity="0.9" />
    <path d="M 12 38 Q 32 32 52 38" stroke="url(#gateGradient)" stroke-width="4.5" fill="none" stroke-linecap="round" />
  </g>

  <!-- Brain (high contrast neural network with vibrant colors) -->
  <g id="brain">
    <path d="M 24 13 Q 22 10 24 8 Q 27 6 30 8 Q 32 5 34 8 Q 37 6 40 8 Q 42 10 40 13 Q 42 16 40 19 Q 42 22 40 25 Q 37 26 34 25 Q 32 28 30 25 Q 27 26 24 25 Q 22 22 24 19 Q 22 16 24 13 Z"
          fill="url(#brainGradient)" opacity="0.4" />

    <!-- Neural nodes -->
    <circle cx="27" cy="13" r="2" fill="#22d3ee" />
    <circle cx="32" cy="10" r="2" fill="#34d399" />
    <circle cx="37" cy="13" r="2" fill="#22d3ee" />
    <circle cx="29" cy="19" r="2" fill="#34d399" />
    <circle cx="35" cy="19" r="2" fill="#22d3ee" />

    <!-- Connections -->
    <line x1="27" y1="13" x2="32" y2="10" stroke="#22d3ee" stroke-width="1.2" opacity="1" />
    <line x1="32" y1="10" x2="37" y2="13" stroke="#34d399" stroke-width="1.2" opacity="1" />
    <line x1="27" y1="13" x2="29" y2="19" stroke="#22d3ee" stroke-width="1.2" opacity="1" />
    <line x1="37" y1="13" x2="35" y2="19" stroke="#34d399" stroke-width="1.2" opacity="1" />
    <line x1="29" y1="19" x2="35" y2="19" stroke="#22d3ee" stroke-width="1.2" opacity="1" />
  </g>

  <!-- "AI" text -->
  <text x="32" y="35"
        font-family="Inter, sans-serif"
        font-size="14"
        font-weight="900"
        fill="url(#brainGradient)"
        opacity="0.3"
        text-anchor="middle"
        dominant-baseline="middle">AI</text>
</svg>
